<svg width="214" height="46" viewBox="0 0 214 46" fill="none" xmlns="http://www.w3.org/2000/svg">
<path d="M44.6352 17.36H50.4852V6.92002H46.0752C46.0752 11.78 45.7152 14.93 44.6352 17.36ZM52.1052 17.36H53.0953C53.4552 17.36 53.7252 17.63 53.7252 17.99V21.32H52.9152C52.6452 18.89 51.9252 18.08 50.6652 18.08H44.8152C43.5552 18.08 42.8352 18.89 42.5652 21.32H41.7552V17.99C41.7552 17.63 42.0252 17.36 42.3852 17.36H43.1052C44.2752 14.84 44.6352 11.78 44.6352 8.36002C44.6352 7.28002 44.4552 6.56002 43.3752 6.56002H43.1052V6.20002H52.1052V17.36ZM60.6517 13.85C60.6517 11.78 59.7517 10.16 58.4017 10.16C57.0517 10.16 56.1517 11.78 56.1517 13.85C56.1517 15.92 57.0517 17.54 58.4017 17.54C59.7517 17.54 60.6517 15.92 60.6517 13.85ZM54.4417 13.85C54.4417 11.42 55.8817 9.44002 58.4017 9.44002C60.9217 9.44002 62.3617 11.42 62.3617 13.85C62.3617 16.28 60.9217 18.26 58.4017 18.26C55.8817 18.26 54.4417 16.28 54.4417 13.85ZM71.2717 11.51L68.3017 18.08H67.9417L64.8817 11.33V18.08H64.1617V9.62002H65.8717L68.5717 15.56L71.2717 9.62002H72.8917V15.38C72.8917 16.73 73.4317 18.08 74.2417 18.08V18.44C71.9917 18.44 71.2717 17.27 71.2717 15.38V11.51ZM75.0475 13.94V12.68H79.6375V13.94H75.0475ZM88.7268 11.51L85.7568 18.08H85.3968L82.3368 11.33V18.08H81.6168V9.62002H83.3268L86.0268 15.56L88.7268 9.62002H90.3468V15.38C90.3468 16.73 90.8868 18.08 91.6968 18.08V18.44C89.4468 18.44 88.7268 17.27 88.7268 15.38V11.51ZM95.6526 19.25L96.0126 18.26L93.2226 11.24C92.8626 10.34 92.1426 9.89002 91.2426 9.80002V9.44002H92.7726C93.8526 9.44002 94.5726 9.98002 94.9326 10.88L96.9126 15.83L99.2526 9.62002H100.153L96.5526 19.25C95.8146 21.23 95.0226 21.68 93.7626 21.68H93.2226V21.14C94.3026 21.14 95.0946 20.78 95.6526 19.25ZM102.233 14.12V13.4H103.223C104.663 13.4 105.473 12.86 105.473 11.78C105.473 10.7 104.663 10.16 103.673 10.16C102.413 10.16 101.405 10.88 101.333 12.05H100.973C100.973 11.06 100.973 10.52 101.423 10.07C101.873 9.62002 102.773 9.44002 103.943 9.44002C105.563 9.44002 107.183 9.98002 107.183 11.78C107.183 12.86 106.463 13.49 105.383 13.76C106.643 14.03 107.453 14.75 107.453 15.83C107.453 17.72 105.833 18.26 103.853 18.26C102.233 18.26 101.333 17.63 100.703 16.82L101.063 16.55C101.513 17 102.143 17.54 103.493 17.54C104.933 17.54 105.743 17 105.743 15.83C105.743 14.66 104.933 14.12 103.223 14.12H102.233ZM115.995 13.4L115.959 14.12H110.595C110.595 16.1 111.495 17.54 113.025 17.54C114.195 17.54 114.915 17 115.545 16.1L115.905 16.37C115.095 17.72 114.015 18.26 112.665 18.26C110.145 18.26 108.885 16.28 108.885 13.85C108.885 11.42 110.145 9.44002 112.395 9.44002C114.825 9.44002 115.995 10.88 115.995 13.4ZM110.595 13.4H114.375C114.375 11.42 113.745 10.25 112.485 10.25C111.405 10.25 110.595 11.6 110.595 13.4ZM123.548 18.08V11.24L119.768 18.08H118.148V11.78C118.148 10.7 117.968 9.98002 116.888 9.98002H116.618V9.62002H118.148C119.408 9.62002 119.768 9.98002 119.768 11.78V16.46L123.548 9.62002H125.168V18.08H123.548ZM121.658 7.91002C122.648 7.91002 123.188 7.64002 123.638 7.19002L123.998 7.46002C123.548 8.27002 122.828 8.90002 121.658 8.90002C120.488 8.90002 119.768 8.27002 119.318 7.46002L119.678 7.19002C120.128 7.64002 120.668 7.91002 121.658 7.91002ZM135.605 9.44002C136.865 9.44002 137.765 9.62002 138.215 10.07C138.665 10.52 138.665 11.06 138.665 12.41H138.305C138.215 10.88 137.225 10.16 135.965 10.16C134.165 10.16 133.355 11.78 133.355 13.85C133.355 15.92 134.165 17.54 135.965 17.54C137.225 17.54 137.945 17 138.575 16.1L138.935 16.37C138.125 17.72 137.045 18.26 135.605 18.26C132.905 18.26 131.645 16.28 131.645 13.85C131.645 11.42 132.905 9.44002 135.605 9.44002ZM147.126 13.4L147.09 14.12H141.726C141.726 16.1 142.626 17.54 144.156 17.54C145.326 17.54 146.046 17 146.676 16.1L147.036 16.37C146.226 17.72 145.146 18.26 143.796 18.26C141.276 18.26 140.016 16.28 140.016 13.85C140.016 11.42 141.276 9.44002 143.526 9.44002C145.956 9.44002 147.126 10.88 147.126 13.4ZM141.726 13.4H145.506C145.506 11.42 144.876 10.25 143.616 10.25C142.536 10.25 141.726 11.6 141.726 13.4ZM156.209 11.51L153.239 18.08H152.879L149.819 11.33V18.08H149.099V9.62002H150.809L153.509 15.56L156.209 9.62002H157.829V15.38C157.829 16.73 158.369 18.08 159.179 18.08V18.44C156.929 18.44 156.209 17.27 156.209 15.38V11.51ZM162.325 13.85V17.27C162.595 17.36 163.135 17.45 163.495 17.45C164.845 17.45 165.655 16.91 165.655 15.56C165.655 14.21 164.845 13.67 163.495 13.67C163.135 13.67 162.595 13.76 162.325 13.85ZM162.325 11.78V13.04H163.675C165.745 13.04 167.365 13.58 167.365 15.56C167.365 17.54 165.745 18.08 163.675 18.08H160.705V11.78C160.705 10.7 160.525 9.98002 159.445 9.98002H159.175V9.62002H160.705C161.965 9.62002 162.325 9.98002 162.325 11.78ZM174.56 18.08V11.24L170.78 18.08H169.16V11.78C169.16 10.7 168.98 9.98002 167.9 9.98002H167.63V9.62002H169.16C170.42 9.62002 170.78 9.98002 170.78 11.78V16.46L174.56 9.62002H176.18V18.08H174.56ZM52.1952 26.2V38.08H50.5752V26.92H45.1752V38.08H43.5552V28.36C43.5552 27.28 43.3752 26.56 42.2952 26.56H41.9352V26.2H52.1952ZM59.3123 36.37V33.94H58.7723C56.9723 33.94 55.8923 34.66 55.8923 35.74C55.8923 36.91 56.7023 37.45 57.6023 37.45C58.5023 37.45 58.9523 36.91 59.3123 36.37ZM60.9323 38.08H60.0323L59.4023 37.27H59.3123C58.9523 37.72 58.1423 38.26 56.7923 38.26C55.8023 38.26 54.1823 37.72 54.1823 35.74C54.1823 33.76 56.3423 33.22 58.7723 33.22H59.3123C59.3123 30.7 58.5023 30.16 57.4223 30.16C56.4323 30.16 55.7123 30.52 55.4423 31.69H54.6323C54.6323 31.06 54.6323 30.52 55.0823 30.07C55.5323 29.62 56.7023 29.44 57.7823 29.44C59.4023 29.44 60.9323 29.98 60.9323 33.22V38.08ZM66.0686 34.03H65.0786V37.27C65.3486 37.36 65.8886 37.45 66.2486 37.45C67.6886 37.45 68.4986 36.91 68.4986 35.74C68.4986 34.57 67.6886 34.03 66.0686 34.03ZM65.0786 30.43V33.31H66.0686C67.3286 33.31 68.1386 32.77 68.1386 31.78C68.1386 30.79 67.3286 30.25 66.2486 30.25C65.8886 30.25 65.3486 30.34 65.0786 30.43ZM62.0186 29.62H66.4286C68.2286 29.62 69.8486 30.16 69.8486 31.78C69.8486 32.77 69.3086 33.4 68.0486 33.67C69.3986 33.94 70.2086 34.66 70.2086 35.74C70.2086 37.54 68.5886 38.08 66.4286 38.08H63.4586V31.78C63.4586 30.7 63.2786 29.98 62.1986 29.98H62.0186V29.62ZM74.5349 30.34V32.5C74.5349 36.82 73.8149 38.26 72.1049 38.26C71.8349 38.26 71.3849 38.17 71.1149 38.08V37.63C72.4649 37.54 73.0049 36.1 73.0049 31.78C73.0049 30.7 72.8249 29.98 71.7269 29.98V29.62H79.0349V38.08H77.4149V30.34H74.5349ZM87.2299 33.85C87.2299 31.78 86.3299 30.16 84.9799 30.16C83.6299 30.16 82.7299 31.78 82.7299 33.85C82.7299 35.92 83.6299 37.54 84.9799 37.54C86.3299 37.54 87.2299 35.92 87.2299 33.85ZM81.0199 33.85C81.0199 31.42 82.4599 29.44 84.9799 29.44C87.4999 29.44 88.9399 31.42 88.9399 33.85C88.9399 36.28 87.4999 38.26 84.9799 38.26C82.4599 38.26 81.0199 36.28 81.0199 33.85ZM93.3499 34.03H92.3599V37.27C92.6299 37.36 93.1699 37.45 93.5299 37.45C94.9699 37.45 95.7799 36.91 95.7799 35.74C95.7799 34.57 94.9699 34.03 93.3499 34.03ZM92.3599 30.43V33.31H93.3499C94.6099 33.31 95.4199 32.77 95.4199 31.78C95.4199 30.79 94.6099 30.25 93.5299 30.25C93.1699 30.25 92.6299 30.34 92.3599 30.43ZM89.2999 29.62H93.7099C95.5099 29.62 97.1299 30.16 97.1299 31.78C97.1299 32.77 96.5899 33.4 95.3299 33.67C96.6799 33.94 97.4899 34.66 97.4899 35.74C97.4899 37.54 95.8699 38.08 93.7099 38.08H90.7399V31.78C90.7399 30.7 90.5599 29.98 89.4799 29.98H89.2999V29.62ZM101.276 33.85V37.27C101.546 37.36 102.086 37.45 102.446 37.45C103.616 37.45 104.426 36.91 104.426 35.56C104.426 34.21 103.616 33.67 102.446 33.67C102.086 33.67 101.546 33.76 101.276 33.85ZM101.276 31.78V33.04H102.626C104.516 33.04 106.136 33.58 106.136 35.56C106.136 37.54 104.516 38.08 102.626 38.08H99.6562V31.78C99.6562 30.7 99.4762 29.98 98.3962 29.98H98.1262V29.62H99.6562C100.916 29.62 101.276 29.98 101.276 31.78ZM107.306 35.92V29.62H108.926V35.92C108.926 37 109.106 37.72 110.186 37.72H110.456V38.08H108.926C107.666 38.08 107.306 37.72 107.306 35.92ZM115.079 36.64L113.963 34.75L111.623 38.08H110.723L113.603 34.03L112.037 31.42C111.533 30.556 110.903 30.07 110.183 29.98V29.62H111.713C112.523 29.62 113.225 30.178 113.747 31.06L114.863 32.95L117.203 29.62H118.103L115.223 33.67L116.789 36.28C117.293 37.144 117.923 37.63 118.733 37.72V38.08H117.113C116.303 38.08 115.601 37.522 115.079 36.64Z" fill="#460909"/>
<path d="M19.7978 28.3338C20.0145 28.125 20.0145 27.7874 19.7978 27.5785C19.581 27.3696 19.2306 27.3696 19.0138 27.5785L17.7424 28.8034V25.2852C17.7424 24.9903 17.4946 24.751 17.188 24.751C16.8814 24.751 16.6335 24.9903 16.6335 25.2852V28.8034L15.3622 27.5785C15.1454 27.3696 14.795 27.3696 14.5782 27.5785C14.3614 27.7874 14.3614 28.125 14.5782 28.3338L16.6335 30.3141V33.9156C15.1132 33.3285 11.6435 31.5913 11.6435 27.9562C11.6435 23.8653 15.936 20.0555 17.188 19.032C18.4399 20.0555 22.7324 23.8653 22.7324 27.9562C22.7324 31.6351 19.2688 33.3462 17.7424 33.922V30.3141L19.7978 28.3338ZM34.2134 21.7024L17.58 5.67664C17.3632 5.46777 17.0128 5.46777 16.796 5.67664L0.162558 21.7024C0.00398606 21.8552 -0.0436964 22.0849 0.0422429 22.2847C0.127628 22.4839 0.330555 22.6142 0.554552 22.6142H4.43568V38.1058C4.43568 38.4007 4.68352 38.64 4.99013 38.64H16.6335V35.0566C15.2125 34.5636 10.5346 32.5887 10.5346 27.9562C10.5346 22.6629 16.5919 18.1089 16.8498 17.9176C17.0488 17.7702 17.3271 17.7702 17.5267 17.9176C17.784 18.1089 23.8413 22.6629 23.8413 27.9562C23.8413 32.5887 19.1635 34.5636 17.7424 35.0566V38.64H29.3858C29.6924 38.64 29.9403 38.4007 29.9403 38.1058V22.6142H33.8214C34.0454 22.6142 34.2483 22.4839 34.3337 22.2847C34.4196 22.0849 34.372 21.8552 34.2134 21.7024Z" fill="#460909"/>
</svg>
